<svg width="8" height="36" viewBox="0 0 8 36" fill="none" xmlns="http://www.w3.org/2000/svg">
<path d="M7.75 31.125C7.75 32.1693 7.35491 33.1708 6.65165 33.9092C5.94839 34.6477 4.99456 35.0625 4 35.0625C3.00544 35.0625 2.05161 34.6477 1.34835 33.9092C0.645088 33.1708 0.25 32.1693 0.25 31.125C0.25 30.0807 0.645088 29.0792 1.34835 28.3408C2.05161 27.6023 3.00544 27.1875 4 27.1875C4.99456 27.1875 5.94839 27.6023 6.65165 28.3408C7.35491 29.0792 7.75 30.0807 7.75 31.125ZM7.75 18C7.75 19.0443 7.35491 20.0458 6.65165 20.7842C5.94839 21.5227 4.99456 21.9375 4 21.9375C3.00544 21.9375 2.05161 21.5227 1.34835 20.7842C0.645088 20.0458 0.25 19.0443 0.25 18C0.25 16.9557 0.645088 15.9542 1.34835 15.2158C2.05161 14.4773 3.00544 14.0625 4 14.0625C4.99456 14.0625 5.94839 14.4773 6.65165 15.2158C7.35491 15.9542 7.75 16.9557 7.75 18ZM7.75 4.875C7.75 5.91929 7.35491 6.92081 6.65165 7.65923C5.94839 8.39766 4.99456 8.8125 4 8.8125C3.00544 8.8125 2.05161 8.39766 1.34835 7.65923C0.645088 6.92081 0.25 5.91929 0.25 4.875C0.25 3.83071 0.645088 2.82919 1.34835 2.09077C2.05161 1.35234 3.00544 0.9375 4 0.9375C4.99456 0.9375 5.94839 1.35234 6.65165 2.09077C7.35491 2.82919 7.75 3.83071 7.75 4.875Z" fill="#4744CC"/>
</svg>
