<svg width="21" height="19" viewBox="0 0 21 19" fill="none" xmlns="http://www.w3.org/2000/svg">
<path d="M20.125 0.899994H0.875C0.642936 0.899994 0.420376 0.994815 0.256282 1.1636C0.0921872 1.33238 0 1.5613 0 1.79999L0 18C0 18.2387 0.0921872 18.4676 0.256282 18.6364C0.420376 18.8052 0.642936 18.9 0.875 18.9H20.125C20.3571 18.9 20.5796 18.8052 20.7437 18.6364C20.9078 18.4676 21 18.2387 21 18V1.79999C21 1.5613 20.9078 1.33238 20.7437 1.1636C20.5796 0.994815 20.3571 0.899994 20.125 0.899994ZM19.25 17.1H17.5V16.2H13.125V17.1H1.75V2.69999H19.25V17.1ZM9.00375 7.83899C9.00375 7.43083 9.16139 7.03938 9.44199 6.75076C9.72259 6.46214 10.1032 6.29999 10.5 6.29999C11.3313 6.29999 11.9963 6.99299 11.9963 7.83899C11.9963 8.69399 11.3313 9.38699 10.5 9.38699C9.66875 9.38699 9.00375 8.69399 9.00375 7.83899ZM4.99625 9.26099C4.99625 8.62199 5.50375 8.09999 6.125 8.09999C6.42436 8.09999 6.71146 8.22231 6.92315 8.44004C7.13483 8.65777 7.25375 8.95308 7.25375 9.26099C7.25375 9.89999 6.74625 10.413 6.125 10.413C5.50375 10.413 4.99625 9.89999 4.99625 9.26099ZM13.7463 9.26099C13.7463 8.95308 13.8652 8.65777 14.0769 8.44004C14.2885 8.22231 14.5756 8.09999 14.875 8.09999C15.1744 8.09999 15.4615 8.22231 15.6731 8.44004C15.8848 8.65777 16.0037 8.95308 16.0037 9.26099C16.0037 9.89999 15.4963 10.413 14.875 10.413C14.2537 10.413 13.7463 9.89999 13.7463 9.26099ZM17.5 12.726V13.5H14H12.25H8.75H7H3.5V12.726C3.5 11.88 4.85625 11.187 6.125 11.187C6.60625 11.187 7.09625 11.286 7.525 11.457C8.18125 10.836 9.3625 10.413 10.5 10.413C11.6375 10.413 12.8187 10.836 13.475 11.457C13.9037 11.286 14.3938 11.187 14.875 11.187C16.1437 11.187 17.5 11.88 17.5 12.726Z" fill="white"/>
</svg>
