<svg width="212" height="220" viewBox="0 0 212 220" fill="none" xmlns="http://www.w3.org/2000/svg">
<g clip-path="url(#clip0_25_511)">
<path d="M113.642 23.0359C120.992 41.7924 145.045 38.9698 161.368 34.9636C165.281 33.962 169.29 32.8694 172.822 30.9573C176.353 29.0453 179.312 25.9495 180.458 22.2164C181.699 18.0281 180.267 13.3845 177.785 9.74245C175.494 6.37357 172.153 2.82258 168.622 0.637352C167.095 4.37044 161.654 4.6436 157.931 4.6436C152.681 4.6436 147.909 2.73153 143.041 1.36576C138.077 -5.58794e-06 132.732 -0.273159 127.769 1.00156C117.746 3.27783 109.729 13.0203 113.642 23.0359Z" fill="#514DF8"/>
<path d="M128.628 148.595C128.342 148.595 128.246 148.595 128.055 148.686L128.628 148.595Z" fill="black"/>
<path d="M128.628 148.595C128.342 148.595 128.246 148.595 128.055 148.686L128.628 148.595Z" fill="black"/>
<path d="M107.438 57.2711V39.6983C107.438 24.7659 122.042 12.565 139.891 12.565C148.768 12.565 156.881 15.5697 162.799 20.4865C168.717 25.4032 172.344 32.141 172.344 39.6072V57.1801" stroke="#514DF8" stroke-width="2" stroke-miterlimit="10"/>
<path d="M172.344 76.3008V96.6051C172.344 111.538 157.74 123.738 139.891 123.738C122.042 123.738 107.438 111.538 107.438 96.6051V76.3008" stroke="#514DF8" stroke-width="2" stroke-miterlimit="10"/>
<path d="M120.61 82.5833C129.73 82.5833 137.123 75.531 137.123 66.8315C137.123 58.132 129.73 51.0796 120.61 51.0796C111.49 51.0796 104.097 58.132 104.097 66.8315C104.097 75.531 111.49 82.5833 120.61 82.5833Z" stroke="#514DF8" stroke-width="2" stroke-miterlimit="10"/>
<path d="M159.076 82.5833C168.196 82.5833 175.589 75.531 175.589 66.8315C175.589 58.132 168.196 51.0796 159.076 51.0796C149.957 51.0796 142.563 58.132 142.563 66.8315C142.563 75.531 149.957 82.5833 159.076 82.5833Z" stroke="#514DF8" stroke-width="2" stroke-miterlimit="10"/>
<path d="M137.027 66.3762H142.754" stroke="#514DF8" stroke-width="4" stroke-miterlimit="10"/>
<path d="M153.159 121.28H153.253V149.779" stroke="#514DF8" stroke-width="2" stroke-miterlimit="10"/>
<path d="M129.391 149.415V122.008" stroke="#514DF8" stroke-width="2" stroke-miterlimit="10"/>
<path d="M120.61 70.4735C122.718 70.4735 124.428 68.8429 124.428 66.8315C124.428 64.82 122.718 63.1894 120.61 63.1894C118.501 63.1894 116.792 64.82 116.792 66.8315C116.792 68.8429 118.501 70.4735 120.61 70.4735Z" fill="#514DF8"/>
<path d="M159.077 70.4735C161.185 70.4735 162.895 68.8429 162.895 66.8315C162.895 64.82 161.185 63.1894 159.077 63.1894C156.968 63.1894 155.259 64.82 155.259 66.8315C155.259 68.8429 156.968 70.4735 159.077 70.4735Z" fill="#514DF8"/>
<path d="M105.242 72.7498H103.333C101.233 72.7498 99.3244 73.5692 97.8926 74.844C96.5563 76.2097 95.6973 78.0307 95.6973 80.0339C95.6973 84.0401 99.1335 87.3179 103.333 87.3179H107.151" stroke="#514DF8" stroke-width="2" stroke-miterlimit="10"/>
<path d="M174.444 72.7498H176.353C180.553 72.7498 183.989 76.0276 183.989 80.0339C183.989 82.037 183.13 83.858 181.698 85.2238C180.362 86.4985 178.453 87.3179 176.353 87.3179H172.535" stroke="#514DF8" stroke-width="2" stroke-miterlimit="10"/>
<path d="M107.247 77.8486V82.2191H104.192C102.952 82.2191 101.902 81.2175 101.902 80.0339C101.902 79.3965 102.188 78.8502 102.57 78.486C102.952 78.1218 103.524 77.8486 104.192 77.8486H107.247Z" fill="#514DF8"/>
<path d="M172.535 82.2191V77.8486H175.59C176.83 77.8486 177.88 78.8502 177.88 80.0339C177.88 80.6712 177.594 81.2175 177.212 81.5817C176.83 81.9459 176.258 82.2191 175.59 82.2191H172.535Z" fill="#514DF8"/>
<path d="M139.891 81.8549C139.891 81.8549 135.118 89.139 142.755 87.3179" stroke="#514DF8" stroke-width="2" stroke-miterlimit="10" stroke-linecap="round"/>
<path d="M131.3 102.888C131.3 102.888 138.936 111.902 149.436 102.888" stroke="#514DF8" stroke-width="2" stroke-miterlimit="10" stroke-linecap="round"/>
<path d="M113.165 48.166C113.165 48.166 118.415 43.1582 127.482 47.2555" stroke="#514DF8" stroke-width="3" stroke-miterlimit="10" stroke-linecap="round"/>
<path d="M166.617 48.166C166.617 48.166 161.367 43.1582 152.3 47.2555" stroke="#514DF8" stroke-width="3" stroke-miterlimit="10" stroke-linecap="round"/>
<path d="M107.247 37.7862C107.247 37.7862 94.0746 28.0437 99.8016 16.2071C105.529 4.37045 123.664 10.744 123.664 10.744C123.664 10.744 130.919 40.2446 107.247 37.7862Z" fill="#514DF8"/>
<path d="M41.7676 110.537C40.6221 106.986 38.9995 105.256 38.1404 100.066C36.3269 89.6862 36.995 79.7617 32.5088 80.1259C30.6953 80.308 30.1226 82.129 30.218 83.1305L31.6498 99.5197C31.0771 101.432 30.0271 100.703 30.0271 100.703C30.0271 100.703 26.3045 86.1352 25.8273 83.4947C25.35 80.9453 24.0137 79.4885 22.2001 79.6706C19.0503 79.9438 20.2911 83.5858 20.5775 84.9516L23.9183 102.615C24.2046 104.345 22.2956 103.799 22.2956 103.799L14.8504 86.1352C13.9914 84.2232 12.3687 84.6784 12.3687 84.6784C9.40973 85.3158 10.5551 87.8652 10.5551 87.8652L16.9503 106.622C16.9503 106.713 16.9503 106.804 16.9503 106.895C17.0458 107.896 15.7095 108.443 15.1368 107.532C13.1323 104.619 9.21883 99.975 5.9735 98.154C4.35084 97.2435 3.20543 97.4256 2.53727 97.8808C1.86912 98.3361 1.77367 99.1555 2.25092 99.7929L14.1823 116.273C16.9503 133.755 28.1181 135.849 28.1181 135.849L34.7996 160.797L44.6311 200.131L45.8719 205.139C47.0174 209.965 51.599 213.425 56.7533 213.425H62.0031C65.7257 213.425 68.3029 209.965 67.1575 206.687L43.3902 137.67L42.3403 131.661C44.6311 129.202 46.1583 124.012 46.9219 120.279C47.3992 118.276 47.5901 116.182 47.3992 114.179C47.0174 109.171 50.549 100.157 50.549 100.157C50.2627 98.4271 46.8264 99.8839 46.8264 99.8839C43.0084 101.159 42.0539 106.986 41.7676 110.173C41.6721 111.538 41.004 112.722 40.0494 113.633C34.3224 119.005 33.8451 125.014 33.8451 125.014" stroke="#514DF8" stroke-width="2" stroke-miterlimit="10"/>
<path d="M25.7318 83.5848C25.2546 81.0354 24.3955 79.1233 22.1047 79.7607C19.0503 80.5802 20.1957 83.6759 20.482 85.0417" stroke="#514DF8" stroke-width="2" stroke-miterlimit="10"/>
<path d="M211.479 218.431V219.342H190.671L186.28 196.124V219.342H96.1744V206.14C96.1744 202.953 96.1744 199.766 96.2699 196.579C94.2654 198.127 92.0701 199.402 89.4929 200.768L69.5437 213.515C69.4482 213.606 69.3528 213.606 69.2573 213.697C68.3983 214.152 67.4437 214.425 66.3938 214.425L62.2453 214.575C62.2453 214.575 66.6801 212.968 67.7301 208.962L60.5713 186.199C70.7845 178.096 87.2975 154.696 118.987 149.87C120.324 149.597 121.755 149.324 123.282 149.142C124.714 148.96 126.146 148.777 127.769 148.686L128.819 148.595V148.777L128.246 148.868C128.437 148.868 128.532 148.868 128.723 148.777H128.819C129.01 148.777 129.2 148.777 129.391 148.686H129.487L130.441 148.595V152.055C130.441 152.51 130.632 153.057 131.109 153.512C132.541 155.06 135.787 156.244 139.7 156.517C140.368 156.608 141.036 156.608 141.704 156.608C141.8 156.608 141.895 156.608 141.895 156.608H141.991C145.809 156.517 149.341 155.515 151.154 154.058C151.727 153.603 152.3 152.966 152.3 152.055V148.868L153.254 149.051H153.445C153.731 149.051 153.922 149.142 154.209 149.142V148.868L155.449 149.051C190.48 153.148 211.479 179.097 211.479 218.431Z" fill="#514DF8"/>
<path d="M69.4486 213.424L69.1619 213.606C69.2574 213.606 69.353 213.515 69.4486 213.424Z" fill="black"/>
</g>
<defs>
<clipPath id="clip0_25_511">
<rect width="210.565" height="219.342" fill="white" transform="translate(0.914551)"/>
</clipPath>
</defs>
</svg>
