<svg width="187" height="64" viewBox="0 0 187 64" fill="none" xmlns="http://www.w3.org/2000/svg">
<path d="M0.530929 0.0560303C0.132732 0.188763 0.212372 1.22408 0.637115 1.83464C0.849487 2.12666 1.40696 2.5514 1.91135 2.79032C2.38918 3.02924 3.10594 3.37434 3.47759 3.56017C3.87578 3.71944 4.43326 4.33001 4.75182 4.88749L5.30929 5.89625V31.434C5.30929 56.7593 5.30929 56.9717 4.75182 58.2459C4.30053 59.2812 3.98197 59.6529 3.0263 60.0776C2.38918 60.3962 1.75207 60.6351 1.61933 60.6351C1.1415 60.6351 0 61.75 0 62.2279C0 62.5199 0.238918 62.865 0.504383 63.0243C1.30078 63.4225 37.5367 63.3694 38.7578 62.9446C39.5277 62.6792 39.7135 62.4402 39.979 61.4315C40.4568 59.5998 40.8816 51.1845 40.563 50.2554C40.271 49.3794 39.0233 48.6095 38.3596 48.8484C37.988 49.0077 36.6341 51.4765 36.6341 52.0075C36.6341 52.2995 35.3599 54.1843 34.6431 54.9276C32.7583 56.9451 27.1039 58.2193 21.1841 57.9273C19.3524 57.8477 19.0338 57.7681 18.3967 57.1309C17.149 55.8567 17.0163 54.6887 16.9897 44.3886C16.9897 35.0177 16.9897 34.9115 17.5472 34.7523C18.264 34.5133 25.2457 34.5399 26.2014 34.7788C28.3782 35.3097 29.4135 36.4512 30.5284 39.5837C30.9001 40.619 31.4841 40.858 32.254 40.3536C32.838 39.9554 32.838 39.9554 32.8114 31.8587C32.7849 26.2309 32.7053 23.6824 32.4929 23.47C32.3336 23.3107 31.8558 23.2046 31.4576 23.2576C30.847 23.3107 30.555 23.6558 29.7586 25.169C28.0065 28.4077 26.4934 29.0979 20.8124 29.151C18.6887 29.1775 17.7596 29.0713 17.441 28.8059C17.0428 28.4873 16.9897 27.3989 16.9897 17.3909C16.9897 10.9135 17.0959 6.18826 17.2552 5.94934C17.441 5.63079 18.3702 5.5246 22.1929 5.47151C26.4668 5.39187 27.0774 5.44496 28.7498 5.97589C30.7408 6.61301 32.8911 8.12616 33.5547 9.32075C33.9795 10.1171 34.2184 10.595 35.2537 12.9311C35.6519 13.7806 36.1563 14.6035 36.4218 14.7362C36.9792 15.0282 37.8287 14.577 38.1473 13.8071C38.28 13.4885 38.3331 10.4092 38.28 6.93156C38.1738 1.43645 38.1207 0.58696 37.7225 0.401134C37.3243 0.188763 1.1415 -0.129795 0.530929 0.0560303Z" fill="white"/>
<path d="M118.875 3.85216C118.61 3.98489 118.397 4.22381 118.397 4.35654C118.397 4.48927 118.026 5.12639 117.601 5.73696C115.61 8.55088 112.637 13.0107 112.504 13.4354C112.398 13.6744 112.504 14.63 112.69 15.5592C113.327 18.4527 113.964 23.47 114.176 27.3192C114.283 29.3633 114.495 33.3718 114.681 36.2123C115.052 42.9817 114.76 45.8221 113.353 48.052C111.495 51.1049 108.124 52.0075 103.744 50.7067C102.018 50.1758 101.514 49.8572 100.054 48.5033C97.9299 46.5123 97.6114 45.5832 96.4964 38.628C95.5673 32.7347 94.7974 30.4783 93.0719 28.8324C91.5322 27.3458 90.4438 27.0007 88.4794 27.4254C86.4884 27.8767 85.9309 28.3015 82.4002 31.9649C77.7812 36.7167 76.6927 38.2564 73.8257 43.7781C69.6048 51.9278 68.7288 52.7242 57.3935 58.8299C56.5971 59.2281 55.5352 59.6794 55.0043 59.8387C53.0664 60.3165 51.2081 61.0598 50.9692 61.4315C50.6241 61.9889 51.1019 62.6791 51.9514 62.8384C52.3762 62.9181 53.1726 63.1039 53.7566 63.2632C54.3406 63.3959 55.5883 63.6083 56.544 63.6879C57.4996 63.7676 58.6411 63.9003 59.0924 63.9534C60.3932 64.1657 64.9061 63.6083 66.0211 63.1039C67.6404 62.3606 69.9234 60.7678 70.8525 59.7059C71.3304 59.1485 72.2595 57.9008 72.9231 56.892C73.5868 55.8832 74.2239 55.0603 74.3301 55.0603C74.4363 55.0603 74.7283 55.3523 74.9672 55.6974C75.8433 57.0513 78.3652 59.3608 80.4358 60.7147C82.825 62.2544 83.701 62.573 86.0636 62.7057C88.1874 62.8119 88.4794 62.7588 89.5412 62.1482C90.7889 61.4049 92.249 59.9183 93.0719 58.5644C93.6825 57.5291 93.8418 57.5026 94.3461 58.4583C94.9036 59.5201 97.0273 61.5642 98.1157 62.0951C100.638 63.2897 104.805 63.6348 107.593 62.9181C111.07 62.0155 113.884 59.5732 115.636 55.8832C116.672 53.733 117.123 53.3613 117.282 54.5559C117.442 55.7771 119.034 58.6441 120.229 59.8387C120.893 60.5023 122.008 61.3784 122.671 61.75C124.078 62.573 127.158 63.2897 129.308 63.2897C131.14 63.2897 134.378 62.4933 137.006 61.4315C138.095 61.0067 139.077 60.6351 139.183 60.6351C139.634 60.6351 144.041 58.4317 145.475 57.476C148.501 55.5116 148.262 55.5116 149.828 57.3168C152.881 60.874 154.607 62.0951 157.739 62.8915C159.173 63.2366 160.42 63.2897 164.376 63.2101C170.853 63.0508 172.366 62.7853 175.366 61.3784C176.242 60.9802 177.649 59.5732 178.95 57.8477C180.728 55.5116 181.843 53.2551 182.932 49.751C183.516 47.9193 183.569 47.3353 183.542 42.5835C183.516 38.0175 183.463 37.1945 182.958 35.7079C182.64 34.7788 182.374 33.7966 182.374 33.5311C182.374 33.2657 182.215 32.6551 182.003 32.1772C181.817 31.6994 181.259 30.2924 180.781 29.0448C180.304 27.7971 179.746 26.629 179.56 26.4167C179.056 25.8592 177.968 26.4167 177.463 27.5051C177.251 27.9829 176.959 28.5669 176.826 28.7793C175.631 30.6906 173.295 34.6726 172.95 35.4425C172.499 36.345 172.525 36.3981 173.269 37.6989C174.543 39.8492 176.507 44.4948 176.693 45.769C176.799 46.4327 176.985 47.176 177.118 47.4415C177.808 48.7688 176.454 49.9368 173.348 50.7067C170.561 51.3703 163.181 51.3969 160.261 50.7332C157.659 50.1492 156.04 49.5121 156.146 49.0873C156.199 48.9281 157.394 47.5211 158.801 46.008C161.721 42.8489 162.411 41.9198 163.128 40.0616C164.031 37.6724 163.473 33.3718 162.066 31.8321C161.695 31.4605 160.845 30.8765 160.128 30.5579C159.013 30.0535 158.323 29.9739 153.837 29.8942C148.501 29.7881 146.537 29.9739 142.422 31.0357C141.121 31.3809 139.502 31.726 138.838 31.8056C136.528 32.1507 134.192 33.0002 133.502 33.7435C132.865 34.4337 132.573 34.9646 131.14 38.2033C130.848 38.867 130.37 39.9023 130.104 40.5128C129.812 41.15 129.547 41.9463 129.494 42.318L129.414 42.9551L133.131 42.9817C138.015 42.9817 138.546 43.2471 142.13 47.4415C142.873 48.3175 143.324 49.0608 143.192 49.1935C143.059 49.2997 142.289 49.6448 141.493 49.9368C137.405 51.45 134.75 51.8482 131.458 51.4234C126.839 50.8129 124.211 48.583 123.176 44.3886C122.831 43.0348 122.459 37.1414 122.246 29.443C121.954 18.7978 120.893 5.28567 120.282 4.09108C120.017 3.5867 119.459 3.48051 118.875 3.85216ZM85.692 38.6546C86.6477 39.8226 90.0456 47.8928 90.4173 49.9103C90.6296 51.0518 90.2314 51.2111 88.4528 50.7863C84.8956 49.9368 79.9049 45.3443 79.9049 42.902C79.9049 42.2118 80.2234 41.734 81.4446 40.5128C83.2497 38.7077 85.0814 37.9113 85.692 38.6546ZM151.554 41.8136C152.456 42.1322 152.642 42.8755 152.005 43.6984C151.474 44.4152 150.917 44.2824 150.147 43.2737C149.191 41.9994 149.244 41.8136 150.545 41.5482C150.625 41.5482 151.076 41.6543 151.554 41.8136Z" fill="white"/>
<path d="M179.109 6.26798C178.313 7.32984 177.118 8.71025 176.428 9.34737L175.18 10.5154L173.8 9.21463C170.588 6.24143 169.366 5.33885 168.862 5.57777C168.172 5.89633 163.287 12.0817 163.261 12.6391C163.261 13.0373 165.039 15.108 168.039 18.2404C169.074 19.3288 169.712 18.9572 172.313 15.6654C173.534 14.1257 174.649 12.878 174.782 12.8515C174.888 12.8515 176.083 13.8868 177.41 15.1345C178.711 16.3822 180.065 17.5237 180.383 17.683C181.339 18.1077 182.109 17.3644 184.657 13.5948C186.33 11.1525 186.887 10.0907 186.781 9.71902C186.515 8.92262 181.657 4.35663 181.047 4.35663C180.728 4.35663 180.038 5.04684 179.109 6.26798Z" fill="white"/>
<path d="M156.624 11.3649C156.253 11.5773 155.536 11.8162 155.031 11.9224C154.527 12.0286 152.908 12.4533 151.448 12.9046C148.926 13.6479 147.386 14.0992 143.351 15.2407C142.395 15.5062 140.935 15.9044 140.086 16.1698C137.962 16.7539 135.812 17.7892 134.962 18.6387C134.139 19.4616 131.936 22.7534 131.936 23.1781C131.936 23.6294 133.369 23.5232 134.909 22.9657C135.679 22.7003 137.564 22.0897 139.104 21.6119C140.643 21.134 142.024 20.6562 142.156 20.5766C142.316 20.4704 142.953 20.2315 143.616 20.0456C144.28 19.8598 144.944 19.5943 145.076 19.4882C145.236 19.382 145.767 19.1961 146.271 19.09C146.775 18.9838 147.572 18.7449 147.997 18.559C148.448 18.3732 149.35 18.0812 150.067 17.8954C150.757 17.7095 151.395 17.4441 151.474 17.3379C151.554 17.2052 151.819 17.099 152.085 17.099C152.987 17.099 155.961 15.7186 156.81 14.9222C157.872 13.8868 158.881 12.002 158.668 11.4446C158.456 10.9136 157.553 10.8871 156.624 11.3649Z" fill="white"/>
<path d="M44.2795 31.8852C43.6955 32.5223 42.3947 36.4246 42.5805 36.929C42.7133 37.221 43.2708 37.2476 45.4476 37.1148C47.0669 37.0086 49.8808 37.0883 52.2966 37.2741C54.553 37.4599 57.6058 37.6192 59.0394 37.6192L61.6675 37.6458L62.4373 36.7432C62.8355 36.2388 63.1806 35.6548 63.1806 35.4158C63.1806 35.2035 63.4195 34.6195 63.7115 34.1416C64.5079 32.8408 64.4283 32.071 63.4195 31.8586C62.9948 31.779 58.5881 31.6197 53.677 31.5401C45.0228 31.3542 44.7043 31.3808 44.2795 31.8852Z" fill="white"/>
</svg>
