<svg width="14" height="19" viewBox="0 0 14 19" fill="none" xmlns="http://www.w3.org/2000/svg">
<path d="M13.7268 13.8523L12.5364 12.6616V8.04617C12.5364 5.21232 11.0232 2.84001 8.38423 2.21232V1.58463C8.38423 0.818474 7.76601 0.200012 7.00016 0.200012C6.2343 0.200012 5.61608 0.818474 5.61608 1.58463V2.21232C2.96789 2.84001 1.46387 5.20309 1.46387 8.04617V12.6616L0.273564 13.8523C-0.307746 14.4339 0.098248 15.4308 0.919464 15.4308H13.0716C13.9021 15.4308 14.3081 14.4339 13.7268 13.8523ZM10.691 13.5846H3.3093V8.04617C3.3093 5.75694 4.7026 3.89232 7.00016 3.89232C9.29772 3.89232 10.691 5.75694 10.691 8.04617V13.5846ZM7.00016 18.2C8.01514 18.2 8.84559 17.3692 8.84559 16.3539H5.15473C5.15473 17.3692 5.97594 18.2 7.00016 18.2Z" fill="white"/>
</svg>
