<svg width="18" height="19" viewBox="0 0 18 19" fill="none" xmlns="http://www.w3.org/2000/svg">
<path d="M18 9.90002C18 4.94102 13.959 0.900024 9 0.900024C4.041 0.900024 0 4.94102 0 9.90002C0 12.51 1.125 14.859 2.907 16.506C2.907 16.515 2.907 16.515 2.898 16.524C2.988 16.614 3.096 16.686 3.186 16.767C3.24 16.812 3.285 16.857 3.339 16.893C3.501 17.028 3.681 17.154 3.852 17.28C3.915 17.325 3.969 17.361 4.032 17.406C4.203 17.523 4.383 17.631 4.572 17.73C4.635 17.766 4.707 17.811 4.77 17.847C4.95 17.946 5.139 18.036 5.337 18.117C5.409 18.153 5.481 18.189 5.553 18.216C5.751 18.297 5.949 18.369 6.147 18.432C6.219 18.459 6.291 18.486 6.363 18.504C6.579 18.567 6.795 18.621 7.011 18.675C7.074 18.693 7.137 18.711 7.209 18.72C7.461 18.774 7.713 18.81 7.974 18.837C8.01 18.837 8.046 18.846 8.082 18.855C8.388 18.882 8.694 18.9 9 18.9C9.306 18.9 9.612 18.882 9.909 18.855C9.945 18.855 9.981 18.846 10.017 18.837C10.278 18.81 10.53 18.774 10.782 18.72C10.845 18.711 10.908 18.684 10.98 18.675C11.196 18.621 11.421 18.576 11.628 18.504C11.7 18.477 11.772 18.45 11.844 18.432C12.042 18.36 12.249 18.297 12.438 18.216C12.51 18.189 12.582 18.153 12.654 18.117C12.843 18.036 13.032 17.946 13.221 17.847C13.293 17.811 13.356 17.766 13.419 17.73C13.599 17.622 13.779 17.523 13.959 17.406C14.022 17.37 14.076 17.325 14.139 17.28C14.319 17.154 14.49 17.028 14.652 16.893C14.706 16.848 14.751 16.803 14.805 16.767C14.904 16.686 15.003 16.605 15.093 16.524C15.093 16.515 15.093 16.515 15.084 16.506C16.875 14.859 18 12.51 18 9.90002ZM13.446 14.373C11.007 12.735 7.011 12.735 4.554 14.373C4.158 14.634 3.834 14.94 3.564 15.273C2.196 13.887 1.35 11.988 1.35 9.90002C1.35 5.67902 4.779 2.25002 9 2.25002C13.221 2.25002 16.65 5.67902 16.65 9.90002C16.65 11.988 15.804 13.887 14.436 15.273C14.175 14.94 13.842 14.634 13.446 14.373Z" fill="white"/>
<path d="M9 5.33673C7.137 5.33673 5.625 6.84873 5.625 8.71174C5.625 10.5387 7.056 12.0237 8.955 12.0777H9.036H9.099H9.117C10.935 12.0147 12.366 10.5387 12.375 8.71174C12.375 6.84873 10.863 5.33673 9 5.33673Z" fill="white"/>
</svg>
