<svg width="22" height="27" viewBox="0 0 22 27" fill="none" xmlns="http://www.w3.org/2000/svg">
<path fill-rule="evenodd" clip-rule="evenodd" d="M22 0V20.1882H18.8571V24.8471H21.2143V26.4H3.92857C2.78143 26.4 1.68143 25.9031 0.941289 25.0334C0.330005 24.3191 0 23.4339 0 22.5176V3.88235C0 1.73929 1.76 0 3.92857 0H22ZM17.2857 20.1882H4.10142C2.86 20.1882 1.78986 21.0113 1.60286 22.1139C1.58558 22.2381 1.57143 22.3623 1.57143 22.4866V22.5177C1.57143 23.0767 1.76 23.5892 2.13714 24.024C2.59286 24.552 3.23715 24.8471 3.92857 24.8471H17.2857V23.2941H3.34715V21.7412H17.2857V20.1882ZM20.4286 1.55294H3.92857C2.63843 1.55294 1.57143 2.5934 1.57143 3.88235V19.4584C2.27858 18.9459 3.157 18.6353 4.10142 18.6353H20.4286L20.4286 1.55294ZM16.4995 12.4235V13.9765H5.49953V12.4235H16.4995V12.4235ZM17.2852 4.65884V10.8706H4.71383V4.65883H17.2853L17.2852 4.65884ZM15.7138 6.21177H6.28525V9.31766H15.7138V6.21177Z" fill="white"/>
</svg>
