<svg width="26" height="19" viewBox="0 0 26 19" fill="none" xmlns="http://www.w3.org/2000/svg">
<path d="M3.85714 8.21429C5.27545 8.21429 6.42857 7.06116 6.42857 5.64286C6.42857 4.22455 5.27545 3.07143 3.85714 3.07143C2.43884 3.07143 1.28571 4.22455 1.28571 5.64286C1.28571 7.06116 2.43884 8.21429 3.85714 8.21429ZM21.8571 8.21429C23.2754 8.21429 24.4286 7.06116 24.4286 5.64286C24.4286 4.22455 23.2754 3.07143 21.8571 3.07143C20.4388 3.07143 19.2857 4.22455 19.2857 5.64286C19.2857 7.06116 20.4388 8.21429 21.8571 8.21429ZM23.1429 9.5H20.5714C19.8643 9.5 19.2254 9.78527 18.7594 10.2473C20.3786 11.1353 21.5277 12.7384 21.7768 14.6429H24.4286C25.1397 14.6429 25.7143 14.0683 25.7143 13.3571V12.0714C25.7143 10.6531 24.5612 9.5 23.1429 9.5ZM12.8571 9.5C15.3442 9.5 17.3571 7.48705 17.3571 5C17.3571 2.51295 15.3442 0.5 12.8571 0.5C10.3701 0.5 8.35714 2.51295 8.35714 5C8.35714 7.48705 10.3701 9.5 12.8571 9.5ZM15.9429 10.7857H15.6094C14.7737 11.1875 13.8455 11.4286 12.8571 11.4286C11.8687 11.4286 10.9446 11.1875 10.1049 10.7857H9.77143C7.21607 10.7857 5.14286 12.8589 5.14286 15.4143V16.5714C5.14286 17.6362 6.0067 18.5 7.07143 18.5H18.6429C19.7076 18.5 20.5714 17.6362 20.5714 16.5714V15.4143C20.5714 12.8589 18.4982 10.7857 15.9429 10.7857ZM6.95491 10.2473C6.48884 9.78527 5.85 9.5 5.14286 9.5H2.57143C1.15312 9.5 0 10.6531 0 12.0714V13.3571C0 14.0683 0.574553 14.6429 1.28571 14.6429H3.93348C4.18661 12.7384 5.33571 11.1353 6.95491 10.2473Z" fill="white"/>
</svg>
